TITLE ""
FILE "2Q_t_0753-0770.mp3" MP3
  TRACK 01 AUDIO
    TITLE "2Q_t_0753-0770_01"
    INDEX 01 00:00:00
  TRACK 02 AUDIO
    TITLE "2Q_t_0753-0770_02"
    INDEX 01 00:00:20
  TRACK 03 AUDIO
    TITLE "2Q_t_0753-0770_03"
    INDEX 01 00:01:67
  TRACK 04 AUDIO
    TITLE "2Q_t_0753-0770_04"
    INDEX 01 00:02:43
  TRACK 05 AUDIO
    TITLE "2Q_t_0753-0770_05"
    INDEX 01 00:05:21
  TRACK 06 AUDIO
    TITLE "2Q_t_0753-0770_06"
    INDEX 01 00:05:66
  TRACK 07 AUDIO
    TITLE "2Q_t_0753-0770_07"
    INDEX 01 00:07:01
  TRACK 08 AUDIO
    TITLE "2Q_t_0753-0770_08"
    INDEX 01 00:07:55
  TRACK 09 AUDIO
    TITLE "2Q_t_0753-0770_09"
    INDEX 01 00:10:38
  TRACK 10 AUDIO
    TITLE "2Q_t_0753-0770_10"
    INDEX 01 00:11:08
  TRACK 11 AUDIO
    TITLE "2Q_t_0753-0770_11"
    INDEX 01 00:12:51
  TRACK 12 AUDIO
    TITLE "2Q_t_0753-0770_12"
    INDEX 01 00:13:27
  TRACK 13 AUDIO
    TITLE "2Q_t_0753-0770_13"
    INDEX 01 00:15:57
  TRACK 14 AUDIO
    TITLE "2Q_t_0753-0770_14"
    INDEX 01 00:16:25
  TRACK 15 AUDIO
    TITLE "2Q_t_0753-0770_15"
    INDEX 01 00:17:34
  TRACK 16 AUDIO
    TITLE "2Q_t_0753-0770_16"
    INDEX 01 00:18:14
  TRACK 17 AUDIO
    TITLE "2Q_t_0753-0770_17"
    INDEX 01 00:20:25
  TRACK 18 AUDIO
    TITLE "2Q_t_0753-0770_18"
    INDEX 01 00:20:68
  TRACK 19 AUDIO
    TITLE "2Q_t_0753-0770_19"
    INDEX 01 00:21:65
  TRACK 20 AUDIO
    TITLE "2Q_t_0753-0770_20"
    INDEX 01 00:22:43
  TRACK 21 AUDIO
    TITLE "2Q_t_0753-0770_21"
    INDEX 01 00:24:73
  TRACK 22 AUDIO
    TITLE "2Q_t_0753-0770_22"
    INDEX 01 00:25:46
  TRACK 23 AUDIO
    TITLE "2Q_t_0753-0770_23"
    INDEX 01 00:26:70
  TRACK 24 AUDIO
    TITLE "2Q_t_0753-0770_24"
    INDEX 01 00:27:42
  TRACK 25 AUDIO
    TITLE "2Q_t_0753-0770_25"
    INDEX 01 00:28:48
  TRACK 26 AUDIO
    TITLE "2Q_t_0753-0770_26"
    INDEX 01 00:29:18
  TRACK 27 AUDIO
    TITLE "2Q_t_0753-0770_27"
    INDEX 01 00:30:54
  TRACK 28 AUDIO
    TITLE "2Q_t_0753-0770_28"
    INDEX 01 00:31:27
  TRACK 29 AUDIO
    TITLE "2Q_t_0753-0770_29"
    INDEX 01 00:33:25
  TRACK 30 AUDIO
    TITLE "2Q_t_0753-0770_30"
    INDEX 01 00:33:69
  TRACK 31 AUDIO
    TITLE "2Q_t_0753-0770_31"
    INDEX 01 00:34:68
  TRACK 32 AUDIO
    TITLE "2Q_t_0753-0770_32"
    INDEX 01 00:35:50
  TRACK 33 AUDIO
    TITLE "2Q_t_0753-0770_33"
    INDEX 01 00:36:53
  TRACK 34 AUDIO
    TITLE "2Q_t_0753-0770_34"
    INDEX 01 00:37:23
  TRACK 35 AUDIO
    TITLE "2Q_t_0753-0770_35"
    INDEX 01 00:38:44
  TRACK 36 AUDIO
    TITLE "2Q_t_0753-0770_36"
    INDEX 01 00:39:18
  TRACK 37 AUDIO
    TITLE "2Q_t_0753-0770_37"
    INDEX 01 00:40:51
  TRACK 38 AUDIO
    TITLE "2Q_t_0753-0770_38"
    INDEX 01 00:41:21
  TRACK 39 AUDIO
    TITLE "2Q_t_0753-0770_39"
    INDEX 01 00:42:56
  TRACK 40 AUDIO
    TITLE "2Q_t_0753-0770_40"
    INDEX 01 00:43:28
  TRACK 41 AUDIO
    TITLE "2Q_t_0753-0770_41"
    INDEX 01 00:45:66
  TRACK 42 AUDIO
    TITLE "2Q_t_0753-0770_42"
    INDEX 01 00:46:34
  TRACK 43 AUDIO
    TITLE "2Q_t_0753-0770_43"
    INDEX 01 00:47:33
  TRACK 44 AUDIO
    TITLE "2Q_t_0753-0770_44"
    INDEX 01 00:48:07
  TRACK 45 AUDIO
    TITLE "2Q_t_0753-0770_45"
    INDEX 01 00:49:22
  TRACK 46 AUDIO
    TITLE "2Q_t_0753-0770_46"
    INDEX 01 00:49:70
  TRACK 47 AUDIO
    TITLE "2Q_t_0753-0770_47"
    INDEX 01 00:51:23
  TRACK 48 AUDIO
    TITLE "2Q_t_0753-0770_48"
    INDEX 01 00:51:74
  TRACK 49 AUDIO
    TITLE "2Q_t_0753-0770_49"
    INDEX 01 00:53:14
  TRACK 50 AUDIO
    TITLE "2Q_t_0753-0770_50"
    INDEX 01 00:53:57
  TRACK 51 AUDIO
    TITLE "2Q_t_0753-0770_51"
    INDEX 01 00:55:03
  TRACK 52 AUDIO
    TITLE "2Q_t_0753-0770_52"
    INDEX 01 00:55:60
  TRACK 53 AUDIO
    TITLE "2Q_t_0753-0770_53"
    INDEX 01 00:58:02
  TRACK 54 AUDIO
    TITLE "2Q_t_0753-0770_54"
    INDEX 01 00:58:47
  TRACK 55 AUDIO
    TITLE "2Q_t_0753-0770_55"
    INDEX 01 00:59:46
  TRACK 56 AUDIO
    TITLE "2Q_t_0753-0770_56"
    INDEX 01 01:00:20
  TRACK 57 AUDIO
    TITLE "2Q_t_0753-0770_57"
    INDEX 01 01:01:22
  TRACK 58 AUDIO
    TITLE "2Q_t_0753-0770_58"
    INDEX 01 01:01:67
  TRACK 59 AUDIO
    TITLE "2Q_t_0753-0770_59"
    INDEX 01 01:03:05
  TRACK 60 AUDIO
    TITLE "2Q_t_0753-0770_60"
    INDEX 01 01:03:58
  TRACK 61 AUDIO
    TITLE "2Q_t_0753-0770_61"
    INDEX 01 01:06:66
  TRACK 62 AUDIO
    TITLE "2Q_t_0753-0770_62"
    INDEX 01 01:07:34
  TRACK 63 AUDIO
    TITLE "2Q_t_0753-0770_63"
    INDEX 01 01:08:51
  TRACK 64 AUDIO
    TITLE "2Q_t_0753-0770_64"
    INDEX 01 01:09:21
  TRACK 65 AUDIO
    TITLE "2Q_t_0753-0770_65"
    INDEX 01 01:13:09
  TRACK 66 AUDIO
    TITLE "2Q_t_0753-0770_66"
    INDEX 01 01:13:54
  TRACK 67 AUDIO
    TITLE "2Q_t_0753-0770_67"
    INDEX 01 01:14:75
  TRACK 68 AUDIO
    TITLE "2Q_t_0753-0770_68"
    INDEX 01 01:15:63
  TRACK 69 AUDIO
    TITLE "2Q_t_0753-0770_69"
    INDEX 01 01:17:17
  TRACK 70 AUDIO
    TITLE "2Q_t_0753-0770_70"
    INDEX 01 01:17:62
  TRACK 71 AUDIO
    TITLE "2Q_t_0753-0770_71"
    INDEX 01 01:19:35
  TRACK 72 AUDIO
    TITLE "2Q_t_0753-0770_72"
    INDEX 01 01:20:11
  TRACK 73 AUDIO
    TITLE "2Q_t_0753-0770_73"
    INDEX 01 01:21:54
